<?xml version="1.0" standalone="no"?>
<!DOCTYPE svg PUBLIC "-//W3C//DTD SVG 20010904//EN"
 "http://www.w3.org/TR/2001/REC-SVG-20010904/DTD/svg10.dtd">
<svg version="1.0" xmlns="http://www.w3.org/2000/svg"
 width="900.000000pt" height="512.000000pt" viewBox="0 0 900.000000 512.000000"
 preserveAspectRatio="xMidYMid meet">

<g transform="translate(0.000000,512.000000) scale(0.100000,-0.100000)"
fill="#000000" stroke="none">
<path d="M3000 4715 c-256 -52 -475 -226 -589 -465 -82 -173 -76 -32 -76
-1700 l0 -1485 34 -97 c98 -285 317 -487 606 -560 l90 -23 1435 0 c1589 0
1488 -4 1654 65 204 85 371 251 455 455 68 164 65 76 65 1660 l0 1430 -22 87
c-67 270 -253 487 -505 588 -158 63 -79 60 -1650 59 -1148 -1 -1445 -4 -1497
-14z m168 -579 c15 -8 177 -165 359 -348 l333 -333 -338 -337 c-185 -185 -347
-341 -359 -347 -34 -17 -110 -13 -153 9 -76 39 -117 131 -96 217 5 18 83 104
222 243 l214 215 -206 205 c-113 113 -212 217 -220 232 -38 73 -1 185 79 232
48 30 122 35 165 12z m1775 -1099 c53 -40 67 -74 67 -160 0 -84 -19 -124 -79
-164 -37 -25 -35 -25 -544 -24 -157 1 -182 7 -223 53 -36 39 -44 64 -44 138 0
95 32 151 100 179 16 6 150 9 356 8 l331 -2 36 -28z"/>
</g>
</svg>
